<svg width="12" height="11" viewBox="0 0 12 11" fill="none" xmlns="http://www.w3.org/2000/svg">
<path fill-rule="evenodd" clip-rule="evenodd" d="M2.7335 1.19791C2.76939 1.73108 2.85914 2.25226 3.00273 2.74948L2.28478 3.46835C2.03948 2.74948 1.88392 1.98867 1.83008 1.19791H2.7335ZM8.63201 8.39865C9.14056 8.54243 9.66107 8.63229 10.1876 8.66823V9.56083C9.39782 9.50691 8.63799 9.35116 7.91406 9.11153L8.63201 8.39865ZM3.30779 0H1.21377C0.884709 0 0.615479 0.269576 0.615479 0.599059C0.615479 6.22422 5.16847 10.7831 10.7864 10.7831C11.1155 10.7831 11.3847 10.5135 11.3847 10.184V8.09328C11.3847 7.7638 11.1155 7.49422 10.7864 7.49422C10.0445 7.49422 9.32061 7.37441 8.65052 7.15276C8.59069 7.1288 8.52488 7.12281 8.46505 7.12281C8.3095 7.12281 8.15992 7.18271 8.04027 7.29653L6.72403 8.61446C5.03086 7.74583 3.64283 6.362 2.78129 4.66667L4.09753 3.34874C4.26505 3.181 4.31291 2.94737 4.2471 2.7377C4.02574 2.06675 3.90608 1.34788 3.90608 0.599059C3.90608 0.269576 3.63685 0 3.30779 0Z" fill="url(#paint0_linear_2367_9839)"/>
<defs>
<linearGradient id="paint0_linear_2367_9839" x1="2.38002" y1="10.0858" x2="11.3074" y2="1.81406" gradientUnits="userSpaceOnUse">
<stop stop-color="#FCC60E"/>
<stop offset="1" stop-color="#E92E29"/>
</linearGradient>
</defs>
</svg>
