<svg width="12" height="15" viewBox="0 0 12 15" fill="none" xmlns="http://www.w3.org/2000/svg">
<path d="M6.00009 0C3.031 0 0.615479 2.41552 0.615479 5.38459C0.615479 9.06929 5.43418 14.4786 5.63934 14.7071C5.83205 14.9218 6.16849 14.9214 6.36085 14.7071C6.56601 14.4786 11.3847 9.06929 11.3847 5.38459C11.3847 2.41552 8.96916 0 6.00009 0ZM6.00009 8.09372C4.50627 8.09372 3.29099 6.87841 3.29099 5.38459C3.29099 3.89076 4.5063 2.67548 6.00009 2.67548C7.49389 2.67548 8.70917 3.89079 8.70917 5.38462C8.70917 6.87844 7.49389 8.09372 6.00009 8.09372Z" fill="#818181"/>
</svg>
