<svg width="13" height="17" viewBox="0 0 13 17" fill="none" xmlns="http://www.w3.org/2000/svg">
<g clip-path="url(#clip0_2361_9766)">
<rect width="13" height="17" transform="matrix(-1 0 0 1 13 0)" fill="white"/>
<path d="M11.5117 7.37702H3.87137V5.05996C3.87137 3.86148 4.7203 2.8228 5.90879 2.5831C7.52174 2.34341 8.96491 3.46199 8.96491 4.98006C8.96491 5.45945 9.38937 5.77904 9.81383 5.77904C10.2383 5.77904 10.6627 5.45945 10.6627 4.98006C10.6627 2.663 8.54045 0.745435 5.99368 0.985131C3.78648 1.22483 2.1735 3.06249 2.1735 5.13986V7.37702H1.3246C0.900099 7.37702 0.475698 7.69661 0.475698 8.176V16.1659C0.475698 16.5654 0.900099 16.9648 1.3246 16.9648H11.5117C12.021 16.9648 12.3606 16.5654 12.3606 16.1659V8.176C12.3606 7.69661 12.021 7.37702 11.5117 7.37702Z" fill="#454545"/>
</g>
<defs>
<clipPath id="clip0_2361_9766">
<rect width="13" height="17" fill="white" transform="matrix(-1 0 0 1 13 0)"/>
</clipPath>
</defs>
</svg>
