<svg width="102" height="29" viewBox="0 0 102 29" fill="none" xmlns="http://www.w3.org/2000/svg">
<path d="M1.51705 23V5.54545H8.40341C9.72159 5.54545 10.8466 5.78125 11.7784 6.25284C12.7159 6.71875 13.429 7.38068 13.9176 8.23864C14.4119 9.09091 14.6591 10.0937 14.6591 11.2472C14.6591 12.4062 14.4091 13.4034 13.9091 14.2386C13.4091 15.0682 12.6847 15.7045 11.7358 16.1477C10.7926 16.5909 9.65057 16.8125 8.30966 16.8125H3.69886V13.8466H7.71307C8.41761 13.8466 9.00284 13.75 9.46875 13.5568C9.93466 13.3636 10.2813 13.0739 10.5085 12.6875C10.7415 12.3011 10.858 11.821 10.858 11.2472C10.858 10.6676 10.7415 10.179 10.5085 9.78125C10.2813 9.38352 9.93182 9.08239 9.46023 8.87784C8.99432 8.66761 8.40625 8.5625 7.69602 8.5625H5.20739V23H1.51705ZM10.9432 15.0568L15.2812 23H11.2074L6.96307 15.0568H10.9432ZM23.1427 23.2557C21.8188 23.2557 20.6739 22.9744 19.708 22.4119C18.7478 21.8437 18.0063 21.054 17.4836 20.0426C16.9609 19.0256 16.6995 17.8466 16.6995 16.5057C16.6995 15.1534 16.9609 13.9716 17.4836 12.9602C18.0063 11.9432 18.7478 11.1534 19.708 10.5909C20.6739 10.0227 21.8188 9.73864 23.1427 9.73864C24.4666 9.73864 25.6086 10.0227 26.5688 10.5909C27.5347 11.1534 28.2791 11.9432 28.8018 12.9602C29.3245 13.9716 29.5859 15.1534 29.5859 16.5057C29.5859 17.8466 29.3245 19.0256 28.8018 20.0426C28.2791 21.054 27.5347 21.8437 26.5688 22.4119C25.6086 22.9744 24.4666 23.2557 23.1427 23.2557ZM23.1597 20.4432C23.762 20.4432 24.2649 20.2727 24.6683 19.9318C25.0717 19.5852 25.3757 19.1136 25.5802 18.517C25.7904 17.9205 25.8955 17.2415 25.8955 16.4801C25.8955 15.7188 25.7904 15.0398 25.5802 14.4432C25.3757 13.8466 25.0717 13.375 24.6683 13.0284C24.2649 12.6818 23.762 12.5085 23.1597 12.5085C22.5518 12.5085 22.0404 12.6818 21.6257 13.0284C21.2166 13.375 20.9069 13.8466 20.6967 14.4432C20.4921 15.0398 20.3899 15.7188 20.3899 16.4801C20.3899 17.2415 20.4921 17.9205 20.6967 18.517C20.9069 19.1136 21.2166 19.5852 21.6257 19.9318C22.0404 20.2727 22.5518 20.4432 23.1597 20.4432ZM38.1014 23.2557C36.7776 23.2557 35.6327 22.9744 34.6668 22.4119C33.7066 21.8437 32.9651 21.054 32.4424 20.0426C31.9196 19.0256 31.6583 17.8466 31.6583 16.5057C31.6583 15.1534 31.9196 13.9716 32.4424 12.9602C32.9651 11.9432 33.7066 11.1534 34.6668 10.5909C35.6327 10.0227 36.7776 9.73864 38.1014 9.73864C39.4253 9.73864 40.5674 10.0227 41.5276 10.5909C42.4935 11.1534 43.2378 11.9432 43.7605 12.9602C44.2833 13.9716 44.5446 15.1534 44.5446 16.5057C44.5446 17.8466 44.2833 19.0256 43.7605 20.0426C43.2378 21.054 42.4935 21.8437 41.5276 22.4119C40.5674 22.9744 39.4253 23.2557 38.1014 23.2557ZM38.1185 20.4432C38.7208 20.4432 39.2236 20.2727 39.627 19.9318C40.0304 19.5852 40.3344 19.1136 40.5389 18.517C40.7492 17.9205 40.8543 17.2415 40.8543 16.4801C40.8543 15.7188 40.7492 15.0398 40.5389 14.4432C40.3344 13.8466 40.0304 13.375 39.627 13.0284C39.2236 12.6818 38.7208 12.5085 38.1185 12.5085C37.5105 12.5085 36.9992 12.6818 36.5844 13.0284C36.1753 13.375 35.8657 13.8466 35.6554 14.4432C35.4509 15.0398 35.3486 15.7188 35.3486 16.4801C35.3486 17.2415 35.4509 17.9205 35.6554 18.517C35.8657 19.1136 36.1753 19.5852 36.5844 19.9318C36.9992 20.2727 37.5105 20.4432 38.1185 20.4432ZM68.2624 23.2472C67.4272 23.2472 66.6829 23.1023 66.0295 22.8125C65.3761 22.517 64.859 22.0824 64.4784 21.5085C64.1034 20.929 63.9159 20.2074 63.9159 19.3438C63.9159 18.6165 64.0494 18.0057 64.3164 17.5114C64.5835 17.017 64.9471 16.6193 65.4073 16.3182C65.8676 16.017 66.3903 15.7898 66.9755 15.6364C67.5664 15.483 68.1857 15.375 68.8335 15.3125C69.5948 15.233 70.2085 15.1591 70.6744 15.0909C71.1403 15.017 71.4784 14.9091 71.6886 14.767C71.8988 14.625 72.0039 14.4148 72.0039 14.1364V14.0852C72.0039 13.5455 71.8335 13.1278 71.4926 12.8324C71.1573 12.5369 70.6801 12.3892 70.0607 12.3892C69.4073 12.3892 68.8874 12.5341 68.5011 12.8239C68.1147 13.108 67.859 13.4659 67.734 13.8977L64.3761 13.625C64.5465 12.8295 64.8818 12.142 65.3818 11.5625C65.8818 10.9773 66.5266 10.5284 67.3164 10.2159C68.1119 9.89773 69.0323 9.73864 70.0778 9.73864C70.8051 9.73864 71.5011 9.82386 72.1659 9.99432C72.8363 10.1648 73.4301 10.429 73.9471 10.7869C74.4698 11.1449 74.8818 11.6051 75.1829 12.1676C75.484 12.7244 75.6346 13.392 75.6346 14.1705V23H72.1914V21.1847H72.0891C71.8789 21.5938 71.5977 21.9545 71.2454 22.267C70.8931 22.5739 70.4698 22.8153 69.9755 22.9915C69.4812 23.1619 68.9102 23.2472 68.2624 23.2472ZM69.3022 20.7415C69.8363 20.7415 70.3079 20.6364 70.717 20.4261C71.1261 20.2102 71.4471 19.9205 71.6801 19.5568C71.913 19.1932 72.0295 18.7812 72.0295 18.321V16.9318C71.9159 17.0057 71.7596 17.0739 71.5607 17.1364C71.3676 17.1932 71.1488 17.2472 70.9045 17.2983C70.6602 17.3437 70.4159 17.3864 70.1715 17.4261C69.9272 17.4602 69.7056 17.4915 69.5068 17.5199C69.0806 17.5824 68.7085 17.6818 68.3903 17.8182C68.0721 17.9545 67.8249 18.1392 67.6488 18.3722C67.4727 18.5994 67.3846 18.8835 67.3846 19.2244C67.3846 19.7188 67.5636 20.0966 67.9215 20.358C68.2852 20.6136 68.7454 20.7415 69.3022 20.7415ZM85.6544 9.90909V12.6364H77.7709V9.90909H85.6544ZM79.5607 6.77273H83.1914V18.9773C83.1914 19.3125 83.2425 19.5739 83.3448 19.7614C83.447 19.9432 83.5891 20.071 83.7709 20.1449C83.9584 20.2187 84.1743 20.2557 84.4186 20.2557C84.5891 20.2557 84.7595 20.2415 84.93 20.2131C85.1005 20.179 85.2311 20.1534 85.322 20.1364L85.8931 22.8381C85.7113 22.8949 85.4556 22.9602 85.126 23.0341C84.7965 23.1136 84.3959 23.1619 83.9243 23.179C83.0493 23.2131 82.2823 23.0966 81.6232 22.8295C80.9698 22.5625 80.4613 22.1477 80.0976 21.5852C79.734 21.0227 79.555 20.3125 79.5607 19.4545V6.77273ZM94.0848 23.2557C92.7382 23.2557 91.5791 22.983 90.6075 22.4375C89.6416 21.8864 88.8973 21.108 88.3745 20.1023C87.8518 19.0909 87.5905 17.8949 87.5905 16.5142C87.5905 15.1676 87.8518 13.9858 88.3745 12.9688C88.8973 11.9517 89.6331 11.1591 90.5819 10.5909C91.5365 10.0227 92.6558 9.73864 93.9399 9.73864C94.8035 9.73864 95.6075 9.87784 96.3518 10.1562C97.1018 10.429 97.7552 10.8409 98.312 11.392C98.8745 11.9432 99.312 12.6364 99.6245 13.4716C99.937 14.3011 100.093 15.2727 100.093 16.3864V17.3835H89.0393V15.1335H96.6757C96.6757 14.6108 96.562 14.1477 96.3348 13.7443C96.1075 13.3409 95.7922 13.0256 95.3887 12.7983C94.991 12.5653 94.528 12.4489 93.9995 12.4489C93.4484 12.4489 92.9598 12.5767 92.5336 12.8324C92.1132 13.0824 91.7836 13.4205 91.545 13.8466C91.3064 14.267 91.1842 14.7358 91.1785 15.2528V17.392C91.1785 18.0398 91.2978 18.5994 91.5365 19.071C91.7808 19.5426 92.1245 19.9062 92.5677 20.1619C93.0109 20.4176 93.5365 20.5455 94.1444 20.5455C94.5478 20.5455 94.9172 20.4886 95.2524 20.375C95.5876 20.2614 95.8745 20.0909 96.1132 19.8636C96.3518 19.6364 96.5336 19.358 96.6586 19.0284L100.017 19.25C99.8461 20.0568 99.4967 20.7614 98.9683 21.3636C98.4456 21.9602 97.7694 22.4261 96.9399 22.7614C96.116 23.0909 95.1643 23.2557 94.0848 23.2557Z" fill="#454545"/>
<path d="M47.2101 16.5495V19.9406C47.2101 21.826 48.8766 23.4191 50.8492 23.4191H52.2063C52.7237 23.4191 53.143 22.9997 53.143 22.4824V16.5495H55.3357L55.381 22.4895C55.3851 23.0042 55.8032 23.4191 56.3178 23.4191H57.4437C59.3769 23.4191 60.9495 21.8585 60.9495 19.9406V16.5495H62.0633C62.4421 16.5495 62.7839 16.3212 62.9286 15.9712C63.0737 15.6211 62.9935 15.2183 62.7256 14.9504L55.3251 7.54861C54.9713 7.19485 54.5007 7 54.0008 7C53.4999 7 53.0297 7.19514 52.6756 7.54896L49.6994 10.5251C49.6539 9.87936 49.1208 9.36754 48.4632 9.36754H48.4554C47.7675 9.36754 47.2101 9.92494 47.2101 10.6125V12.8061C47.2101 12.8742 47.2195 12.9348 47.2301 12.9947L45.2744 14.9504C45.0065 15.2183 44.9262 15.6211 45.0715 15.9712C45.2164 16.3212 45.5583 16.5495 45.9371 16.5495H47.2101Z" fill="url(#paint0_linear_2367_9797)"/>
<defs>
<linearGradient id="paint0_linear_2367_9797" x1="47.9493" y1="22.3575" x2="61.5804" y2="8.49356" gradientUnits="userSpaceOnUse">
<stop stop-color="#FCC60E"/>
<stop offset="1" stop-color="#E92E29"/>
</linearGradient>
</defs>
</svg>
