<svg width="13" height="14" viewBox="0 0 13 14" fill="none" xmlns="http://www.w3.org/2000/svg">
<path d="M10.3076 8.51282C9.54759 8.51282 8.87785 8.88669 8.45718 9.45526L4.82018 7.59292C4.88057 7.3871 4.923 7.1738 4.923 6.94872C4.923 6.64344 4.86041 6.35321 4.75228 6.08626L8.55857 3.79579C8.98216 4.29292 9.60477 4.61539 10.3076 4.61539C11.5802 4.61539 12.6153 3.58023 12.6153 2.30769C12.6153 1.03515 11.5802 0 10.3076 0C9.03508 0 7.99993 1.03515 7.99993 2.30769C7.99993 2.60095 8.06031 2.87913 8.16049 3.13738L4.34287 5.43456C3.91964 4.95221 3.306 4.64103 2.61531 4.64103C1.34277 4.64103 0.307617 5.67618 0.307617 6.94872C0.307617 8.22126 1.34277 9.25641 2.61531 9.25641C3.38787 9.25641 4.06893 8.87156 4.488 8.28703L8.11303 10.1433C8.04626 10.3588 7.99993 10.5833 7.99993 10.8205C7.99993 12.0931 9.03508 13.1282 10.3076 13.1282C11.5802 13.1282 12.6153 12.0931 12.6153 10.8205C12.6153 9.54798 11.5802 8.51282 10.3076 8.51282Z" fill="#818181"/>
</svg>
