<svg width="20" height="20" viewBox="0 0 20 20" fill="none" xmlns="http://www.w3.org/2000/svg">
<g clip-path="url(#clip0_2367_9801)">
<path d="M8.91668 2.18745C8.23484 0.737687 6.50684 0.115187 5.05711 0.797023C4.44586 1.08452 3.95414 1.57624 3.66668 2.18745H1.25C0.559648 2.18745 0 2.7471 0 3.43745C0 4.1278 0.559648 4.68745 1.25 4.68745H3.6625C4.34434 6.13722 6.07234 6.75972 7.52207 6.07788C8.13328 5.79042 8.625 5.29866 8.9125 4.68745H18.75C19.4404 4.68745 20 4.1278 20 3.43745C20 2.7471 19.4404 2.18745 18.75 2.18745H8.91668Z" fill="#6A6A6A"/>
<path d="M13.7125 7.08325C12.5889 7.08524 11.5668 7.73399 11.0867 8.74993H1.25C0.559648 8.74993 0 9.30958 0 9.99993C0 10.6903 0.559648 11.2499 1.25 11.2499H11.0833C11.7652 12.6997 13.4932 13.3222 14.9429 12.6404C15.5541 12.3529 16.0458 11.8611 16.3333 11.2499H18.75C19.4404 11.2499 20 10.6903 20 9.99993C20 9.30958 19.4404 8.74993 18.75 8.74993H16.3375C15.8575 7.73427 14.8359 7.0856 13.7125 7.08325Z" fill="#6A6A6A"/>
<path d="M6.2875 13.6458C5.16414 13.6481 4.14246 14.2968 3.6625 15.3124H1.25C0.559648 15.3124 0 15.8721 0 16.5624C0 17.2528 0.559648 17.8124 1.25 17.8124H3.6625C4.34434 19.2622 6.07234 19.8847 7.52207 19.2029C8.13328 18.9154 8.625 18.4236 8.9125 17.8124H18.75C19.4404 17.8124 20 17.2528 20 16.5624C20 15.8721 19.4404 15.3124 18.75 15.3124H8.91668C8.43605 14.2954 7.41234 13.6465 6.2875 13.6458Z" fill="#6A6A6A"/>
</g>
<defs>
<clipPath id="clip0_2367_9801">
<rect width="20" height="20" fill="white"/>
</clipPath>
</defs>
</svg>
